<?xml version="1.0" encoding="utf-8"?>
<!-- Generator: Adobe Illustrator 22.1.0, SVG Export Plug-In . SVG Version: 6.00 Build 0)  -->
<svg version="1.1" id="Слой_1" xmlns="http://www.w3.org/2000/svg" xmlns:xlink="http://www.w3.org/1999/xlink" x="0px" y="0px"
	 viewBox="0 0 256 256" style="enable-background:new 0 0 256 256;" xml:space="preserve">
<style type="text/css">
	.st0{fill:#5CBBD7;}
	.st1{fill:#FFFFFF;}
</style>
<rect class="st0" width="256" height="256"/>
<path class="st1" d="M172.6,87.2c14.6-0.2,26.4-12,26.4-26.5c0-14.6-11.9-26.5-26.7-26.5c-14.7,0-26.7,11.8-26.7,26.5
	c0,2.4,0.4,4.8,0.9,7c2,8.4-3.9,18.1-19.8,15.4c-0.1,0-0.2-0.1-0.3-0.1c-2.9-0.5-5.9-0.8-9-0.8c-27.8,0-50.4,22.4-50.4,50
	c0,27.6,22.5,50,50.4,50c2.9,0,5.8-0.2,8.6-0.8c0.2-0.1,0.4-0.1,0.5-0.1c21.9-3.5,26.1,8.4,25.3,16l0,0c-0.1,0.6-0.1,1.2-0.1,1.9
	c0,9.4,7.7,17,17.1,17c9.5,0,17.1-7.6,17.1-17c0-8.5-6.3-15.5-14.4-16.8c-0.1,0-0.1,0-0.1,0c-7.5-1.3-17.8-8.5-8.7-28.4
	c0-0.1,0-0.1,0.1-0.1c3.2-6.6,5-13.9,5-21.7c0-8-1.9-15.5-5.2-22.2c-0.1-0.1-0.1-0.1-0.1-0.2C155.8,95.4,163.9,87.4,172.6,87.2z
	 M136.4,150.5c-0.9,2.1-2.2,4-4,5.6c-1.8,1.6-4.1,2.8-6.9,3.7c-2.8,0.9-6.1,1.3-9.9,1.3c-1.5,0-3-0.1-4.6-0.3
	c-1.6-0.2-3.2-0.4-4.6-0.8c-1.5-0.3-2.9-0.6-4.1-1c-1.2-0.3-2.2-0.7-2.9-1l2.3-9.9c1.4,0.6,3.2,1.2,5.3,1.9c2.2,0.7,4.9,1,8,1
	c3.7,0,6.4-0.7,8.1-2.1c1.7-1.4,2.6-3.3,2.6-5.6c0-1.5-0.3-2.6-0.9-3.6c-0.6-1-1.5-1.8-2.5-2.4c-1.1-0.6-2.3-1-3.8-1.3
	c-1.5-0.2-3-0.3-4.7-0.3h-4.6v-9.5h5.3c1.2,0,2.3-0.1,3.4-0.3c1.1-0.2,2-0.6,2.9-1c0.9-0.5,1.5-1.2,2-2.1c0.5-0.9,0.8-2,0.8-3.3
	c0-1-0.2-1.9-0.6-2.6c-0.4-0.8-1-1.3-1.6-1.9c-0.7-0.5-1.5-0.8-2.3-1.1c-0.9-0.2-1.8-0.3-2.7-0.3c-2.3,0-4.4,0.3-6.4,1
	c-1.9,0.7-3.7,1.6-5.3,2.6l-4.3-8.7c0.9-0.5,1.9-1.1,3-1.7c1.1-0.6,2.4-1.1,3.8-1.6c1.4-0.5,2.9-0.9,4.4-1.2c1.6-0.3,3.2-0.5,5-0.5
	c3.3,0,6.1,0.4,8.4,1.2c2.4,0.8,4.3,1.9,5.9,3.3c1.6,1.4,2.7,3,3.5,4.9c0.8,1.9,1.1,3.9,1.1,6.2c0,2.1-0.6,4.2-1.8,6.3
	c-1.2,2-2.9,3.6-5,4.6c2.9,1.2,5.1,2.9,6.7,5.2c1.6,2.3,2.3,5.1,2.3,8.3C137.6,146,137.2,148.3,136.4,150.5z"/>
</svg>
